<svg width="30" height="30" viewBox="0 0 30 30" fill="none" xmlns="http://www.w3.org/2000/svg">
<path d="M6.67972 2.66602C3.31644 3.22266 0.890659 5.55469 0.164097 8.92969C-0.0234032 9.79102 -0.0175438 11.373 0.169956 12.2461C0.41605 13.4004 0.925816 14.543 1.68753 15.6445C2.26761 16.4883 2.69535 16.9922 3.69144 18.0117C5.03324 19.3828 6.36918 20.543 9.31058 22.8809C10.1602 23.5547 11.7891 24.8555 12.9317 25.7695L15.0059 27.4219L16.3067 26.3789C17.0215 25.8047 18.586 24.5625 19.7754 23.6133C23.502 20.6543 24.8965 19.459 26.3672 17.9531C28.377 15.8906 29.4141 14.1797 29.8301 12.2461C30.0059 11.4258 30.0235 9.84961 29.8594 9.05273C29.5137 7.3125 28.7227 5.8418 27.5157 4.69922C26.4493 3.69727 25.1661 3.03516 23.6426 2.71875C22.9102 2.56641 21.2168 2.56055 20.5196 2.71289C18.4454 3.16992 16.6993 4.40625 15.3985 6.35156C15.2051 6.64453 15.0235 6.88477 15 6.88477C14.9766 6.88477 14.795 6.64453 14.5957 6.3457C13.3125 4.42383 11.5664 3.18164 9.52152 2.72461C8.93558 2.58984 7.31254 2.56055 6.67972 2.66602Z" fill="#FBFDFF"/>
</svg>
