<svg width="20" height="20" viewBox="0 0 20 20" fill="none" xmlns="http://www.w3.org/2000/svg">
<g clip-path="url(#clip0_501_2362)">
<path d="M19.7556 18.5777L14.0682 12.8902C15.1699 11.5294 15.8332 9.80027 15.8332 7.91697C15.8332 3.55201 12.2815 0.000366211 7.91656 0.000366211C3.55161 0.000366211 0 3.55197 0 7.91693C0 12.2819 3.55165 15.8335 7.9166 15.8335C9.7999 15.8335 11.5291 15.1702 12.8899 14.0686L18.5773 19.756C18.7398 19.9185 18.9531 20.0002 19.1665 20.0002C19.3798 20.0002 19.5932 19.9185 19.7557 19.756C20.0815 19.4302 20.0815 18.9035 19.7556 18.5777ZM7.9166 14.1669C4.46996 14.1669 1.66666 11.3636 1.66666 7.91693C1.66666 4.47028 4.46996 1.66699 7.9166 1.66699C11.3632 1.66699 14.1665 4.47028 14.1665 7.91693C14.1665 11.3636 11.3632 14.1669 7.9166 14.1669Z" fill="#3F484D"/>
</g>
<defs>
<clipPath id="clip0_501_2362">
<rect width="20" height="20" fill="white"/>
</clipPath>
</defs>
</svg>
