<svg width="512" height="512" viewBox="0 0 512 512" fill="none" xmlns="http://www.w3.org/2000/svg">
<path d="M32.6441 238.191L49.8253 255.554L32.6441 272.472L15.4629 255.554L32.6441 238.191Z" stroke="white" stroke-width="8"/>
<path d="M478.925 238.191L496.106 255.554L478.925 272.472L461.744 255.554L478.925 238.191Z" stroke="white" stroke-width="8"/>
<path d="M221.638 467.923L255.57 502.65L287.785 467.923" stroke="white" stroke-width="8"/>
<path d="M253.441 10.2415L288.216 44.5222L253.441 10.2415ZM288.216 44.5222L458.31 221.274L221.639 467.924L51.0439 290.282L288.216 44.5222Z" stroke="white" stroke-width="8"/>
<path d="M258.562 10.2415L222.069 44.8208L258.562 10.2415ZM222.069 44.8208L457.881 292.508L288.216 467.478L51.9746 220.383L201.881 65.6576L222.069 44.8208ZM222.069 44.8208L201.881 65.6576L222.069 44.8208ZM201.881 65.6576H178.256L70.8739 176.752V336.14L178.256 447.444H332.458L439.84 336.14V176.752L332.458 65.6576H201.881Z" stroke="white" stroke-width="8"/>
<path d="M49.8252 255.555L255.57 43.6312L461.744 255.555L255.57 466.143L49.8252 255.555Z" stroke="white" stroke-width="8"/>
<path d="M85.5676 253.737L69.8377 237.301L51.541 256.113L67.2707 272.55L85.5676 253.737Z" fill="white"/>
<path d="M460.124 254.627L444.394 238.191L426.098 257.003L441.827 273.439L460.124 254.627Z" fill="white"/>
<path d="M254.502 78.5197L244.469 66.9555L264.511 66.9331L254.502 78.5197Z" fill="white"/>
<path d="M254.683 434.532L264.704 446.108H244.662L254.683 434.532Z" fill="white"/>
<path d="M269.106 307.2V304.356C270.175 304.356 271.275 304.291 272.406 304.16C273.537 303.963 274.575 303.637 275.518 303.178C276.461 302.721 277.246 302.1 277.874 301.315C278.504 300.465 278.818 299.354 278.818 297.98C278.818 296.672 278.44 294.841 277.686 292.488C276.932 290.134 276.084 287.714 275.14 285.229C274.198 282.744 273.254 280.423 272.312 278.265C271.369 276.108 270.71 274.57 270.332 273.656H232.992C232.742 274.178 232.333 275.061 231.767 276.303C231.264 277.48 230.667 278.853 229.975 280.423C229.284 281.926 228.592 283.529 227.901 285.229C227.21 286.929 226.55 288.597 225.921 290.231C225.355 291.866 224.884 293.37 224.507 294.744C224.129 296.117 223.941 297.196 223.941 297.98C223.941 299.288 224.349 300.367 225.167 301.217C225.984 302.001 226.99 302.623 228.184 303.08C229.378 303.538 230.604 303.866 231.861 304.062C233.118 304.192 234.219 304.291 235.161 304.356V307.2H204.8V304.356C207.063 304.225 208.98 303.702 210.551 302.786C212.123 301.805 213.506 300.563 214.701 299.059C215.895 297.489 216.932 295.724 217.812 293.763C218.755 291.736 219.698 289.577 220.64 287.289L254.679 204.8H257.131L290.604 287.878C291.547 290.166 292.427 292.291 293.244 294.252C294.125 296.149 295.161 297.849 296.356 299.354C297.551 300.792 298.996 301.969 300.693 302.884C302.39 303.734 304.559 304.225 307.2 304.356V307.2H269.106ZM251.945 227.457L235.161 268.26H268.351L251.945 227.457Z" fill="white"/>
</svg>
