<svg width="35" height="29" viewBox="0 0 35 29" fill="none" xmlns="http://www.w3.org/2000/svg">
<path d="M7.98803 1.06177L7.98915 1.06159C8.26175 1.01615 8.84198 0.991453 9.48329 1.00408C10.1314 1.01684 10.6843 1.06481 10.916 1.11811L10.9221 1.1195L10.9221 1.11948C13.0313 1.59089 14.8588 2.87237 16.2281 4.92286C16.2282 4.92306 16.2283 4.92325 16.2284 4.92345L17.0601 4.36816C17.2925 4.71679 17.5044 4.99707 17.5318 4.99707C17.5591 4.99707 17.771 4.71679 17.9966 4.375L7.98803 1.06177ZM7.98803 1.06177C4.47604 1.64302 1.96351 4.0503 1.20079 7.59327L1.2003 7.59552M7.98803 1.06177L1.2003 7.59552M11.5158 22.8759C12.5087 23.6634 14.4097 25.1815 15.7425 26.2477C15.7428 26.2479 15.7431 26.2482 15.7434 26.2484L17.5366 27.6769L18.4299 26.9606C18.9332 26.5563 19.7979 25.8679 20.7084 25.143C21.309 24.6649 21.9295 24.1708 22.4793 23.732L22.4812 23.7305C26.8263 20.2804 28.4098 18.9196 30.0773 17.2123C32.3466 14.8834 33.4239 13.0487 33.8557 11.0424C33.9382 10.6576 33.9928 10.034 33.9994 9.36908C34.0059 8.70172 33.963 8.09114 33.8882 7.72802L33.8869 7.72121C33.5211 5.88002 32.6936 4.35521 31.4475 3.17498C30.3438 2.13839 29.0159 1.44905 27.4114 1.11582L27.4111 1.11576C27.0855 1.04802 26.4596 1.00166 25.7752 0.999994C25.0874 0.998322 24.4815 1.04223 24.1859 1.10657C22.0439 1.57867 20.2182 2.85273 18.8295 4.92842L5.0537 17.2797C6.57431 18.8334 8.09366 20.1559 11.5158 22.8759ZM11.5158 22.8759C11.5157 22.8758 11.5156 22.8758 11.5155 22.8757L10.8941 23.6592M11.5158 22.8759C11.5159 22.8761 11.5161 22.8762 11.5163 22.8763L10.8941 23.6592M10.8941 23.6592C11.8853 24.4453 13.7857 25.9629 15.1187 27.0293L17.5386 28.957M10.8941 23.6592L17.5386 28.957M17.5386 28.957L19.0562 27.7402C19.5582 27.337 20.4193 26.6514 21.328 25.9279L17.5386 28.957ZM1.2003 7.59552C1.11268 7.998 1.06091 8.62995 1.06254 9.30986C1.06416 9.98844 1.11874 10.6276 1.20773 11.042L1.20804 11.0434M1.2003 7.59552L1.20804 11.0434M1.20804 11.0434C1.46421 12.245 1.99961 13.4572 2.82304 14.648L2.82457 14.6503M1.20804 11.0434L2.82457 14.6503M2.82457 14.6503C3.45872 15.5727 3.91662 16.1158 5.05356 17.2795L2.82457 14.6503Z" stroke="#181818" stroke-width="2"/>
</svg>
