<svg width="35" height="29" viewBox="0 0 35 29" fill="none" xmlns="http://www.w3.org/2000/svg">
<path d="M7.95629 1.09693L7.95741 1.09674C8.23001 1.05131 8.81024 1.02661 9.45155 1.03923C10.0997 1.05199 10.6526 1.09997 10.8843 1.15326L10.8903 1.15465L10.8903 1.15463C12.9996 1.62605 14.827 2.90752 16.1963 4.95802C16.1964 4.95821 16.1966 4.95841 16.1967 4.9586L17.0284 4.40332C17.2608 4.75195 17.4727 5.03222 17.5 5.03222C17.5274 5.03222 17.7393 4.75195 17.9649 4.41015L7.95629 1.09693ZM7.95629 1.09693C4.4443 1.67818 1.93177 4.08545 1.16905 7.62842L1.16856 7.63067M7.95629 1.09693L1.16856 7.63067M11.484 22.9111C12.4769 23.6985 14.3779 25.2166 15.7108 26.2829C15.7111 26.2831 15.7114 26.2833 15.7117 26.2836L17.5049 27.7121L18.3982 26.9958C18.9015 26.5915 19.7662 25.903 20.6767 25.1781C21.2773 24.7 21.8977 24.206 22.4476 23.7672L22.4495 23.7657C26.7946 20.3156 28.378 18.9547 30.0456 17.2474C32.3149 14.9186 33.3922 13.0839 33.824 11.0776C33.9065 10.6927 33.9611 10.0691 33.9676 9.40423C33.9742 8.73688 33.9313 8.1263 33.8565 7.76318L33.8551 7.75637C33.4894 5.91518 32.6619 4.39036 31.4157 3.21013C30.312 2.17355 28.9841 1.48421 27.3797 1.15098L27.3794 1.15092C27.0537 1.08318 26.4279 1.03682 25.7435 1.03515C25.0557 1.03348 24.4497 1.07739 24.1541 1.14173C22.0122 1.61383 20.1865 2.88789 18.7978 4.96358L5.02196 17.3148C6.54258 18.8686 8.06192 20.1911 11.484 22.9111ZM11.484 22.9111C11.4839 22.911 11.4838 22.9109 11.4837 22.9108L10.8623 23.6943M11.484 22.9111C11.4842 22.9112 11.4844 22.9114 11.4846 22.9115L10.8623 23.6943M10.8623 23.6943C11.8536 24.4805 13.7539 25.998 15.087 27.0645L17.5069 28.9922M10.8623 23.6943L17.5069 28.9922M17.5069 28.9922L19.0245 27.7754C19.5265 27.3721 20.3876 26.6865 21.2964 25.963L17.5069 28.9922ZM1.16856 7.63067C1.08095 8.03316 1.02917 8.66511 1.0308 9.34502C1.03242 10.0236 1.087 10.6628 1.17599 11.0771L1.1763 11.0786M1.16856 7.63067L1.1763 11.0786M1.1763 11.0786C1.43247 12.2802 1.96788 13.4924 2.7913 14.6832L2.79283 14.6854M1.1763 11.0786L2.79283 14.6854M2.79283 14.6854C3.42698 15.6078 3.88488 16.151 5.02183 17.3147L2.79283 14.6854Z" fill="#FF564B" stroke="#FF564B" stroke-width="2"/>
</svg>
