<svg width="100" height="100" viewBox="0 0 100 100" fill="none" xmlns="http://www.w3.org/2000/svg">
<path d="M49.0039 9.62881C48.6133 9.78506 48.0469 10.078 47.7344 10.3124C47.4219 10.5273 36.6992 21.2108 23.8867 34.0233C7.42187 50.4882 0.507812 57.539 0.292969 58.0468C-0.078125 58.9648 -0.078125 59.7851 0.292969 60.6835C0.703125 61.6601 1.11328 62.0898 2.05078 62.5194C3.00781 62.9687 3.88672 62.9882 4.84375 62.5976C5.35156 62.3827 12.1094 55.7421 27.793 40.078L50 17.871L72.2266 40.078C87.8906 55.7421 94.6484 62.3827 95.1562 62.5976C96.1133 62.9882 96.9922 62.9687 97.9492 62.5194C98.8867 62.0898 99.2969 61.6601 99.707 60.6835C100.078 59.7851 100.078 58.9648 99.707 58.0468C99.4922 57.539 95.7617 53.6718 87.5976 45.5077L75.7812 33.6913V25.7812C75.7812 16.9921 75.7617 16.8749 74.4336 15.7616C72.8711 14.453 70.1953 14.9999 69.1992 16.8554C68.9062 17.3827 68.8476 18.1835 68.7891 22.0507L68.7109 26.621L60.4883 18.3983C55.957 13.8866 51.9727 10.0585 51.6602 9.90225C50.7422 9.45303 49.7852 9.35538 49.0039 9.62881Z" fill="#E9E9E9"/>
<path d="M48.8285 23.4569C47.8714 23.7304 10.9574 60.6054 10.2933 61.914C9.86361 62.7734 9.86361 62.9296 9.80502 72.4413C9.76596 78.2226 9.82455 82.5976 9.94174 83.3593C10.5277 87.1093 13.3988 89.9413 17.1878 90.4491C18.0081 90.5663 22.5199 90.6249 28.0863 90.5858C37.1878 90.5077 37.6371 90.4882 38.6917 90.0976C40.9964 89.2382 42.5785 87.7733 43.6136 85.5858L44.2386 84.2773L44.3558 76.0741C44.4144 71.1523 44.5511 67.6366 44.6683 67.2655C45.4886 64.9023 47.8519 63.0273 50.0003 63.0077C51.6605 63.0077 54.0042 64.5116 54.8246 66.0937C55.4886 67.3827 55.5472 67.9882 55.6449 76.0741L55.7621 84.2773L56.3871 85.5858C57.4222 87.7929 59.0238 89.2382 61.4456 90.1562C62.3246 90.4882 63.2621 90.5077 71.9144 90.5858C77.5003 90.6249 81.9925 90.5663 82.8128 90.4491C86.5433 89.9413 89.3558 87.246 90.0394 83.5546C90.1761 82.8319 90.2347 78.8866 90.1956 72.6171C90.1371 63.6718 90.098 62.7148 89.7855 62.0116C89.5316 61.4648 84.1019 55.8984 71.0355 42.8124C60.9183 32.6952 52.3246 24.1796 51.9535 23.9257C51.1527 23.3593 49.805 23.164 48.8285 23.4569Z" fill="#E9E9E9"/>
</svg>
