<svg width="135" height="135" viewBox="0 0 135 135" fill="none" xmlns="http://www.w3.org/2000/svg">
<path d="M8.60735 62.8042L13.1376 67.3825L8.60735 71.8433L4.07715 67.3825L8.60735 62.8042Z" stroke="#FBFDFF" stroke-width="1.5"/>
<path d="M126.279 62.8042L130.81 67.3825L126.279 71.8433L121.749 67.3825L126.279 62.8042Z" stroke="#FBFDFF" stroke-width="1.5"/>
<path d="M58.4397 123.378L67.3869 132.535L75.881 123.378" stroke="#FBFDFF" stroke-width="1.5"/>
<path d="M66.8249 2.70032L75.9941 11.7392M75.9941 11.7392L120.843 58.3435L58.4396 123.378L13.4585 76.5392L75.9941 11.7392Z" stroke="#FBFDFF" stroke-width="1.5"/>
<path d="M68.175 2.70032L58.5528 11.8179M58.5528 11.8179L120.73 77.1261L75.9941 123.261L13.7039 58.1087L53.2299 17.312M58.5528 11.8179L53.2299 17.312M53.2299 17.312H47.0008L18.6871 46.6044V88.6305L47.0008 117.978H87.6594L115.973 88.6305V46.6044L87.6594 17.312H53.2299Z" stroke="#FBFDFF" stroke-width="1.5"/>
<path d="M13.1377 67.3825L67.3869 11.5043L121.749 67.3825L67.3869 122.909L13.1377 67.3825Z" stroke="#FBFDFF" stroke-width="1.5"/>
<path d="M22.5624 66.9034L18.4149 62.5696L13.5906 67.53L17.7381 71.8638L22.5624 66.9034Z" fill="#FBFDFF"/>
<path d="M121.321 67.138L117.173 62.8042L112.349 67.7646L116.497 72.0984L121.321 67.138Z" fill="#FBFDFF"/>
<path d="M67.1045 20.7034L64.4591 17.6542L69.7436 17.6482L67.1045 20.7034Z" fill="#FBFDFF"/>
<path d="M67.1535 114.574L69.7957 117.626H64.5112L67.1535 114.574Z" fill="#FBFDFF"/>
<path d="M70.9556 81V80.25C71.2374 80.25 71.5277 80.2328 71.8258 80.1984C72.1242 80.1465 72.3978 80.0604 72.6463 79.9396C72.895 79.8189 73.102 79.6552 73.2678 79.4484C73.4337 79.2241 73.5165 78.9312 73.5165 78.5689C73.5165 78.2241 73.4169 77.7413 73.2181 77.1208C73.0193 76.5 72.7955 75.8621 72.5468 75.2069C72.2983 74.5517 72.0496 73.9397 71.8011 73.3706C71.5524 72.8017 71.3785 72.3965 71.2789 72.1553H61.4336C61.3674 72.293 61.2597 72.5258 61.1106 72.8534C60.9779 73.1637 60.8203 73.5258 60.638 73.9397C60.4558 74.3361 60.2735 74.7585 60.0912 75.2069C59.9089 75.6552 59.7348 76.0949 59.569 76.5257C59.4199 76.9569 59.2956 77.3533 59.1961 77.7156C59.0965 78.0776 59.0469 78.362 59.0469 78.5689C59.0469 78.9137 59.1546 79.1984 59.3702 79.4224C59.5856 79.6292 59.8509 79.7932 60.1658 79.9137C60.4807 80.0344 60.8038 80.1208 61.1353 80.1724C61.4667 80.2068 61.757 80.2328 62.0054 80.25V81H54V80.25C54.5967 80.2156 55.1021 80.0776 55.5166 79.8361C55.931 79.5776 56.2956 79.25 56.6105 78.8536C56.9254 78.4396 57.1989 77.9741 57.4308 77.4569C57.6795 76.9224 57.9282 76.3533 58.1767 75.75L67.1519 54H67.7983L76.6242 75.9052C76.8729 76.5085 77.1049 77.0689 77.3202 77.5861C77.5524 78.0861 77.8258 78.5344 78.1408 78.9312C78.4557 79.3104 78.8368 79.6208 79.2844 79.862C79.7319 80.0861 80.3037 80.2156 81 80.25V81H70.9556ZM66.4309 59.974L62.0054 70.7326H70.7568L66.4309 59.974Z" fill="#FBFDFF"/>
</svg>
