<svg width="36" height="31" viewBox="0 0 36 31" fill="none" xmlns="http://www.w3.org/2000/svg">
<path d="M8.17589 1.71046L8.177 1.71028C8.45538 1.66388 9.04591 1.63883 9.69741 1.65166C10.3558 1.66462 10.9187 1.71334 11.1558 1.76787L11.1618 1.76925L11.1618 1.76924C13.3084 2.24899 15.1677 3.55314 16.5604 5.63872C16.5605 5.63891 16.5607 5.63911 16.5608 5.63931L17.3925 5.08402C17.6285 5.43811 17.8437 5.72277 17.8715 5.72277C17.8993 5.72277 18.1145 5.43811 18.3436 5.09096L8.17589 1.71046ZM8.17589 1.71046C4.60251 2.30187 2.04569 4.75172 1.26971 8.35629L1.26922 8.35854M8.17589 1.71046L1.26922 8.35854M11.7517 23.8936C12.7601 24.6934 14.6909 26.2352 16.0445 27.3182C16.0448 27.3184 16.0451 27.3186 16.0454 27.3189L17.8764 28.7775L18.7935 28.0422C18.7936 28.0421 18.7937 28.042 18.7938 28.0419C19.3052 27.6312 20.1834 26.9319 21.1082 26.1957C21.718 25.7102 22.3479 25.2086 22.9062 24.7631L22.9081 24.7616C27.3216 21.2572 28.9304 19.8746 30.625 18.1396C32.931 15.773 34.0271 13.907 34.4664 11.8652C34.5503 11.4728 34.6058 10.8386 34.6124 10.1633C34.6191 9.4851 34.5755 8.86369 34.4992 8.4933L34.4979 8.48649C34.1258 6.61353 33.2838 5.06187 32.0157 3.86078C30.8925 2.80591 29.5412 2.10448 27.9089 1.76547L27.9086 1.76542C27.5763 1.69629 26.9394 1.6492 26.244 1.64751C25.5452 1.64581 24.9283 1.69039 24.6264 1.75612C22.4465 2.23656 20.589 3.53321 19.1765 5.64446L5.18701 18.2085C6.73212 19.7873 8.27585 21.131 11.7517 23.8936ZM11.7517 23.8936C11.7516 23.8935 11.7515 23.8935 11.7514 23.8934L11.13 24.6769M11.7517 23.8936C11.7518 23.8937 11.752 23.8939 11.7522 23.894L11.13 24.6769M11.13 24.6769C12.1367 25.4753 14.0668 27.0166 15.4207 28.0997L17.8785 30.0576M11.13 24.6769L17.8785 30.0576M17.8785 30.0576L19.4198 28.8218C19.9297 28.4122 20.8044 27.7158 21.7273 26.981C22.3376 26.4951 22.969 25.9924 23.53 25.5447C27.9457 22.0386 29.5981 20.6222 31.3407 18.8379L17.8785 30.0576ZM1.26922 8.35854C1.17989 8.76889 1.12729 9.41199 1.12894 10.1031C1.13059 10.7928 1.18606 11.4432 1.27676 11.8655L1.27707 11.867M1.26922 8.35854L1.27707 11.867M1.27707 11.867C1.53773 13.0896 2.08244 14.3227 2.91977 15.5336L2.9213 15.5359M1.27707 11.867L2.9213 15.5359M2.9213 15.5359C3.56604 16.4737 4.03174 17.026 5.18687 18.2084L2.9213 15.5359Z" stroke="black" stroke-width="2"/>
</svg>
