<svg width="31" height="34" viewBox="0 0 31 34" fill="none" xmlns="http://www.w3.org/2000/svg">
<path d="M11.6992 0.739784C11.0508 0.911659 10.4102 1.29447 9.94922 1.77885C9.17578 2.59135 8.87891 3.41947 8.87891 4.77103V5.60697L4.90234 5.63041C1.01953 5.65385 0.917969 5.66166 0.707031 5.81791C0.292969 6.1226 0.167969 6.3726 0.167969 6.86478C0.167969 7.35697 0.292969 7.60697 0.707031 7.91166C0.886719 8.05228 1.05859 8.08353 1.76953 8.09916L2.62891 8.13041L2.64453 18.021C2.66797 28.7945 2.63672 28.0054 3.09766 29.2242C3.61328 30.607 5.13672 32.1304 6.51953 32.646C7.71484 33.0992 7.28516 33.0757 15.1289 33.0757C22.9727 33.0757 22.543 33.0992 23.7383 32.646C25.1211 32.1304 26.6445 30.607 27.1602 29.2242C27.6211 28.0054 27.5898 28.7945 27.6133 18.021L27.6289 8.13041L28.4883 8.09916C29.1992 8.08353 29.3711 8.05228 29.5508 7.91166C29.9648 7.60697 30.0898 7.35697 30.0898 6.86478C30.0898 6.3726 29.9648 6.1226 29.5508 5.81791C29.3398 5.66166 29.2383 5.65385 25.3555 5.63041L21.3789 5.60697V4.77103C21.3789 3.41947 21.082 2.59135 20.3086 1.77885C19.832 1.27885 19.207 0.911659 18.5273 0.731972C17.8711 0.567909 12.332 0.567909 11.6992 0.739784ZM18.3008 3.31791C18.7695 3.66166 18.8398 3.84135 18.8633 4.76322L18.8945 5.61478H15.1367H11.3789V4.88041C11.3789 4.08353 11.4492 3.8101 11.7148 3.51322C12.0742 3.1226 12.1523 3.11478 15.2227 3.13822C17.9805 3.15385 18.0977 3.16166 18.3008 3.31791ZM25.1289 17.6382C25.1289 23.7867 25.0977 27.3023 25.0508 27.5757C24.7852 28.9585 23.668 30.1304 22.2773 30.4976C21.5977 30.6695 8.67578 30.6773 7.99609 30.4976C6.64453 30.146 5.59766 29.107 5.24609 27.7632C5.14453 27.357 5.12891 26.0679 5.12891 17.7085V8.11478H15.1289H25.1289V17.6382Z" fill="black"/>
<path d="M9.62104 13.2241C9.30072 13.3647 8.9726 13.7632 8.91791 14.0757C8.89447 14.2163 8.87885 16.6851 8.89447 19.5757C8.91791 24.7319 8.91791 24.8257 9.08197 25.0366C9.38666 25.4507 9.63666 25.5757 10.1288 25.5757C10.621 25.5757 10.871 25.4507 11.1757 25.0366C11.3398 24.8257 11.3398 24.7554 11.3398 19.3647C11.3398 13.9741 11.3398 13.9038 11.1757 13.6929C11.0898 13.5757 10.9257 13.4038 10.8163 13.3257C10.5585 13.1304 9.93354 13.0757 9.62104 13.2241Z" fill="black"/>
<path d="M14.621 13.2241C14.3007 13.3647 13.9726 13.7632 13.9179 14.0757C13.8945 14.2163 13.8788 16.6851 13.8945 19.5757C13.9179 24.7319 13.9179 24.8257 14.082 25.0366C14.3867 25.4507 14.6367 25.5757 15.1288 25.5757C15.621 25.5757 15.871 25.4507 16.1757 25.0366C16.3398 24.8257 16.3398 24.7554 16.3398 19.3647C16.3398 13.9741 16.3398 13.9038 16.1757 13.6929C16.0898 13.5757 15.9257 13.4038 15.8163 13.3257C15.5585 13.1304 14.9335 13.0757 14.621 13.2241Z" fill="black"/>
<path d="M19.621 13.2241C19.3007 13.3647 18.9726 13.7632 18.9179 14.0757C18.8945 14.2163 18.8788 16.6851 18.8945 19.5757C18.9179 24.7319 18.9179 24.8257 19.082 25.0366C19.3867 25.4507 19.6367 25.5757 20.1288 25.5757C20.621 25.5757 20.871 25.4507 21.1757 25.0366C21.3398 24.8257 21.3398 24.7554 21.3398 19.3647C21.3398 13.9741 21.3398 13.9038 21.1757 13.6929C21.0898 13.5757 20.9257 13.4038 20.8163 13.3257C20.5585 13.1304 19.9335 13.0757 19.621 13.2241Z" fill="black"/>
</svg>
