<svg width="41" height="41" viewBox="0 0 41 41" fill="none" xmlns="http://www.w3.org/2000/svg">
<path d="M23.6772 31.1782C22.7667 31.903 21.902 32.5915 21.3987 32.9958L20.5054 33.7121L18.7122 32.2836L18.7113 32.2829C17.3784 31.2166 15.4774 29.6985 14.4845 28.9111C11.0624 26.1911 9.54307 24.8686 8.02245 23.3148C6.8855 22.1511 6.42747 21.6078 5.79332 20.6854L5.79179 20.6832C4.96837 19.4924 4.43296 18.2802 4.17679 17.0786L4.17648 17.0771C4.08749 16.6628 4.03291 16.0236 4.03129 15.345C4.02966 14.6651 4.08144 14.0332 4.16905 13.6307L4.16954 13.6284C4.93226 10.0855 7.44479 7.67819 10.9568 7.09694L10.9579 7.09675C11.2305 7.05132 11.8107 7.02662 12.4521 7.03924C13.1002 7.052 13.6531 7.09998 13.8848 7.15327L13.6451 7.11358C16 7.5 17.5 8.5 19.2543 10.4589L20.5 12C22 10 25.0127 7.61384 27.1546 7.14174C27.4502 7.0774 28.0562 7.03349 28.744 7.03516C29.4284 7.03683 30.0545 7.08325 30.3802 7.15099C31.9846 7.48422 33.3125 8.17356 34.4162 9.21014C35.6624 10.3904 36.4899 11.9152 36.8556 13.7564L36.857 13.7632C36.9318 14.1263 36.9747 14.7369 36.9681 15.4042C36.9616 16.0691 36.907 16.6927 36.8245 17.0776C36.3927 19.0838 35.3155 20.9183 33.0465 23.247C31.3788 24.9545 29.7954 26.3153 25.45 29.7657L25.4481 29.7672C24.9596 30.157 24.4154 30.5904 23.879 31.0175M23.6772 31.1782L23.879 31.0175M23.6772 31.1782C23.7442 31.1248 23.8116 31.0712 23.879 31.0175" stroke="black" stroke-width="2"/>
</svg>
