<svg width="41" height="41" viewBox="0 0 41 41" fill="none" xmlns="http://www.w3.org/2000/svg">
<path d="M4.16905 13.6307C4.08144 14.0332 4.02966 14.6651 4.03129 15.345C4.03291 16.0236 4.08749 16.6628 4.17648 17.0771L4.17679 17.0786L4.16905 13.6307ZM4.17679 17.0786C4.43296 18.2802 4.96837 19.4924 5.79179 20.6832L5.79332 20.6854L4.17679 17.0786ZM5.79332 20.6854C6.42747 21.6078 6.8855 22.1511 8.02245 23.3148L5.79332 20.6854Z" fill="#FF564B"/>
<path d="M10.9579 7.09675L10.9568 7.09694C7.44479 7.67819 4.93226 10.0855 4.16954 13.6284L4.16905 13.6307L4.17679 17.0786L5.79332 20.6854L8.02245 23.3148C9.54307 24.8686 11.0624 26.1911 14.4845 28.9111C15.4774 29.6985 17.3784 31.2166 18.7113 32.2829L18.7122 32.2836L20.5054 33.7121L21.3987 32.9958C21.902 32.5915 22.7667 31.903 23.6772 31.1782L23.879 31.0175C24.4154 30.5904 24.9596 30.157 25.4481 29.7672L25.45 29.7657C29.7954 26.3153 31.3788 24.9545 33.0465 23.247C35.3155 20.9183 36.3927 19.0838 36.8245 17.0776C36.907 16.6927 36.9616 16.0691 36.9681 15.4042C36.9747 14.7369 36.9318 14.1263 36.857 13.7632L36.8556 13.7564C36.4899 11.9152 35.6624 10.3904 34.4162 9.21014C33.3125 8.17356 31.9846 7.48422 30.3802 7.15099C30.0545 7.08325 29.4284 7.03683 28.744 7.03516C28.0562 7.03349 27.4502 7.0774 27.1546 7.14174C25.0127 7.61384 21.8887 9.92429 20.5 12L19.1968 10.958C17.8275 8.90753 16.0001 7.62608 13.8908 7.15466L13.8848 7.15327C13.6531 7.09998 13.1002 7.052 12.4521 7.03924C11.8107 7.02662 11.2305 7.05132 10.9579 7.09675Z" fill="#FF564B"/>
<path d="M4.16905 13.6307L4.16954 13.6284C4.93226 10.0855 7.44479 7.67819 10.9568 7.09694L10.9579 7.09675C11.2305 7.05132 11.8107 7.02662 12.4521 7.03924C13.1002 7.052 13.6531 7.09998 13.8848 7.15327L13.8908 7.15466C16.0001 7.62608 17.8275 8.90753 19.1968 10.958L20.5 12C21.8887 9.92429 25.0127 7.61384 27.1546 7.14174C27.4502 7.0774 28.0562 7.03349 28.744 7.03516C29.4284 7.03683 30.0545 7.08325 30.3802 7.15099C31.9846 7.48422 33.3125 8.17356 34.4162 9.21014C35.6624 10.3904 36.4899 11.9152 36.8556 13.7564L36.857 13.7632C36.9318 14.1263 36.9747 14.7369 36.9681 15.4042C36.9616 16.0691 36.907 16.6927 36.8245 17.0776C36.3927 19.0838 35.3155 20.9183 33.0465 23.247C31.3788 24.9545 29.7954 26.3153 25.45 29.7657L25.4481 29.7672C24.9596 30.157 24.4154 30.5904 23.879 31.0175M4.16905 13.6307C4.08144 14.0332 4.02966 14.6651 4.03129 15.345C4.03291 16.0236 4.08749 16.6628 4.17648 17.0771L4.17679 17.0786M4.16905 13.6307L4.17679 17.0786M23.6772 31.1782C22.7667 31.903 21.902 32.5915 21.3987 32.9958L20.5054 33.7121L18.7122 32.2836L18.7113 32.2829C17.3784 31.2166 15.4774 29.6985 14.4845 28.9111C11.0624 26.1911 9.54307 24.8686 8.02245 23.3148M23.6772 31.1782L23.879 31.0175M23.6772 31.1782C23.7442 31.1248 23.8116 31.0712 23.879 31.0175M8.02245 23.3148C6.8855 22.1511 6.42747 21.6078 5.79332 20.6854M8.02245 23.3148L5.79332 20.6854M4.17679 17.0786C4.43296 18.2802 4.96837 19.4924 5.79179 20.6832L5.79332 20.6854M4.17679 17.0786L5.79332 20.6854" stroke="#FF564B" stroke-width="2"/>
</svg>
