<svg width="41" height="41" viewBox="0 0 41 41" fill="none" xmlns="http://www.w3.org/2000/svg">
<path d="M16.6992 3.73978C16.0508 3.91166 15.4102 4.29447 14.9492 4.77885C14.1758 5.59135 13.8789 6.41947 13.8789 7.77103V8.60697L9.90234 8.63041C6.01953 8.65385 5.91797 8.66166 5.70703 8.81791C5.29297 9.1226 5.16797 9.3726 5.16797 9.86478C5.16797 10.357 5.29297 10.607 5.70703 10.9117C5.88672 11.0523 6.05859 11.0835 6.76953 11.0992L7.62891 11.1304L7.64453 21.021C7.66797 31.7945 7.63672 31.0054 8.09766 32.2242C8.61328 33.607 10.1367 35.1304 11.5195 35.646C12.7148 36.0992 12.2852 36.0757 20.1289 36.0757C27.9727 36.0757 27.543 36.0992 28.7383 35.646C30.1211 35.1304 31.6445 33.607 32.1602 32.2242C32.6211 31.0054 32.5898 31.7945 32.6133 21.021L32.6289 11.1304L33.4883 11.0992C34.1992 11.0835 34.3711 11.0523 34.5508 10.9117C34.9648 10.607 35.0898 10.357 35.0898 9.86478C35.0898 9.3726 34.9648 9.1226 34.5508 8.81791C34.3398 8.66166 34.2383 8.65385 30.3555 8.63041L26.3789 8.60697V7.77103C26.3789 6.41947 26.082 5.59135 25.3086 4.77885C24.832 4.27885 24.207 3.91166 23.5273 3.73197C22.8711 3.56791 17.332 3.56791 16.6992 3.73978ZM23.3008 6.31791C23.7695 6.66166 23.8398 6.84135 23.8633 7.76322L23.8945 8.61478H20.1367H16.3789V7.88041C16.3789 7.08353 16.4492 6.8101 16.7148 6.51322C17.0742 6.1226 17.1523 6.11478 20.2227 6.13822C22.9805 6.15385 23.0977 6.16166 23.3008 6.31791ZM30.1289 20.6382C30.1289 26.7867 30.0977 30.3023 30.0508 30.5757C29.7852 31.9585 28.668 33.1304 27.2773 33.4976C26.5977 33.6695 13.6758 33.6773 12.9961 33.4976C11.6445 33.146 10.5977 32.107 10.2461 30.7632C10.1445 30.357 10.1289 29.0679 10.1289 20.7085V11.1148H20.1289H30.1289V20.6382Z" fill="black"/>
<path d="M14.621 16.2241C14.3007 16.3647 13.9726 16.7632 13.9179 17.0757C13.8945 17.2163 13.8788 19.6851 13.8945 22.5757C13.9179 27.7319 13.9179 27.8257 14.082 28.0366C14.3867 28.4507 14.6367 28.5757 15.1288 28.5757C15.621 28.5757 15.871 28.4507 16.1757 28.0366C16.3398 27.8257 16.3398 27.7554 16.3398 22.3647C16.3398 16.9741 16.3398 16.9038 16.1757 16.6929C16.0898 16.5757 15.9257 16.4038 15.8163 16.3257C15.5585 16.1304 14.9335 16.0757 14.621 16.2241Z" fill="black"/>
<path d="M19.621 16.2241C19.3007 16.3647 18.9726 16.7632 18.9179 17.0757C18.8945 17.2163 18.8788 19.6851 18.8945 22.5757C18.9179 27.7319 18.9179 27.8257 19.082 28.0366C19.3867 28.4507 19.6367 28.5757 20.1288 28.5757C20.621 28.5757 20.871 28.4507 21.1757 28.0366C21.3398 27.8257 21.3398 27.7554 21.3398 22.3647C21.3398 16.9741 21.3398 16.9038 21.1757 16.6929C21.0898 16.5757 20.9257 16.4038 20.8163 16.3257C20.5585 16.1304 19.9335 16.0757 19.621 16.2241Z" fill="black"/>
<path d="M24.621 16.2241C24.3007 16.3647 23.9726 16.7632 23.9179 17.0757C23.8945 17.2163 23.8788 19.6851 23.8945 22.5757C23.9179 27.7319 23.9179 27.8257 24.082 28.0366C24.3867 28.4507 24.6367 28.5757 25.1288 28.5757C25.621 28.5757 25.871 28.4507 26.1757 28.0366C26.3398 27.8257 26.3398 27.7554 26.3398 22.3647C26.3398 16.9741 26.3398 16.9038 26.1757 16.6929C26.0898 16.5757 25.9257 16.4038 25.8163 16.3257C25.5585 16.1304 24.9335 16.0757 24.621 16.2241Z" fill="black"/>
</svg>
