<svg width="30" height="17" viewBox="0 0 30 17" fill="none" xmlns="http://www.w3.org/2000/svg">
<path d="M21.2513 0.120766C20.5863 0.432983 20.273 1.28328 20.5735 1.95421C20.6566 2.12693 21.4879 3.03701 23.0034 4.61138C24.2759 5.92668 25.3118 7.02276 25.3118 7.04934C25.3118 7.08255 19.8318 7.10248 13.1432 7.10248H0.968192L0.686837 7.25527C0.252016 7.49441 0.0282112 7.87306 0.00263352 8.41778C-0.0229442 8.95586 0.136917 9.3345 0.520582 9.65336L0.769965 9.85929L13.0409 9.87922C19.787 9.88587 25.3118 9.91908 25.3118 9.94565C25.3118 9.97222 24.2631 11.0816 22.9778 12.4168C20.4584 15.0341 20.4009 15.1072 20.4648 15.6984C20.5096 16.097 20.7845 16.562 21.1043 16.7812C21.4623 17.027 22.0506 17.0735 22.4087 16.8809C22.7284 16.7081 29.7303 9.41422 29.8902 9.09536C30.0437 8.76985 30.0373 8.2052 29.8646 7.86642C29.6728 7.47448 22.6645 0.227053 22.3576 0.0941944C22.0378 -0.0386658 21.5647 -0.0320225 21.2513 0.120766Z" fill="#FBFDFF"/>
</svg>
