<?xml version="1.0" encoding="iso-8859-1"?>
<!-- Generator: Adobe Illustrator 16.0.0, SVG Export Plug-In . SVG Version: 6.00 Build 0)  -->
<!DOCTYPE svg PUBLIC "-//W3C//DTD SVG 1.1//EN" "http://www.w3.org/Graphics/SVG/1.1/DTD/svg11.dtd">
<svg version="1.1" id="Capa_1" xmlns="http://www.w3.org/2000/svg" xmlns:xlink="http://www.w3.org/1999/xlink" x="0px" y="0px"
	 width="431.221px" height="431.221px" viewBox="0 0 431.221 431.221" style="enable-background:new 0 0 431.221 431.221;"
	 xml:space="preserve" fill="white">
<g>
	<path d="M375.94,15.199H55.281C24.805,15.199,0,40.004,0,70.48v290.26c0,30.484,24.805,55.281,55.281,55.281h320.66
		c30.485,0,55.28-24.807,55.28-55.281V70.48C431.23,40.004,406.426,15.199,375.94,15.199z M387.004,360.74
		c0,6.102-4.963,11.055-11.055,11.055H55.281c-6.101,0-11.054-4.963-11.054-11.055V70.48c0-6.101,4.963-11.054,11.054-11.054h320.66
		c6.101,0,11.054,4.953,11.054,11.054v290.26H387.004z"/>
	<path d="M173.253,160.97c-3.347-5.89-11.542-8.138-17.327-4.819l-73.23,41.3c-3.71,2.104-6.129,5.872-6.445,10.136
		c-0.277,4.265,1.53,8.358,4.848,10.94l73.239,57.461c2.276,1.777,4.982,2.695,7.822,2.695c3.958,0,7.611-1.787,10.012-4.867
		c4.322-5.508,3.366-13.512-2.161-17.854l-58.264-45.698l56.667-31.967C174.516,174.864,176.667,167.1,173.253,160.97z"/>
	<path d="M348.524,197.46l-73.22-41.281c-5.872-3.356-14.01-1.09-17.337,4.819c-3.424,6.11-1.253,13.875,4.839,17.318l56.667,31.967
		l-58.265,45.708c-5.518,4.332-6.483,12.336-2.171,17.824c2.41,3.1,6.063,4.887,10.003,4.887c2.869,0,5.565-0.928,7.851-2.705
		l73.22-57.434c3.328-2.591,5.136-6.684,4.858-10.997C354.654,203.332,352.234,199.564,348.524,197.46z"/>
	<path d="M235.295,120.645c-7.058-1.425-13.617,3.299-14.918,10.107L186.258,308.48c-0.631,3.338,0.067,6.703,1.979,9.525
		c1.894,2.811,4.781,4.705,8.119,5.354c0.803,0.154,1.616,0.221,2.409,0.221c6.082,0,11.332-4.342,12.479-10.328l34.1-177.756
		c0.641-3.328-0.057-6.704-1.96-9.505C241.481,123.169,238.604,121.267,235.295,120.645z"/>
</g>
<g>
</g>
<g>
</g>
<g>
</g>
<g>
</g>
<g>
</g>
<g>
</g>
<g>
</g>
<g>
</g>
<g>
</g>
<g>
</g>
<g>
</g>
<g>
</g>
<g>
</g>
<g>
</g>
<g>
</g>
</svg>
