<svg width="30" height="28" viewBox="0 0 30 28" fill="none" xmlns="http://www.w3.org/2000/svg">
<path d="M4.55266 1.07422C4.28899 1.16797 4.11907 1.30859 4.00774 1.52539C3.8847 1.76562 -0.0235075 26.0293 0.0233675 26.2754C0.0761019 26.5449 0.386649 26.8613 0.673758 26.9434C1.00774 27.0371 28.9921 27.0371 29.3261 26.9434C29.6132 26.8613 29.9238 26.5449 29.9765 26.2754C30.0175 26.0527 25.8867 1.86523 25.7577 1.54883C25.6581 1.32031 25.4941 1.17383 25.2128 1.07422C24.8788 0.957029 4.88665 0.957029 4.55266 1.07422ZM9.43353 3.11914C9.73821 3.31836 9.83196 3.54101 9.90228 4.18554C10.1542 6.48828 11.2675 8.08789 13.0488 8.6914C13.6406 8.89062 14.2324 8.97851 15.0292 8.97851C17.455 8.98437 19.1249 7.79492 19.8222 5.58594C19.957 5.16992 20.0156 4.83008 20.1327 3.83398C20.2382 2.91992 21.3632 2.66211 21.8202 3.45312C22.1308 3.97461 21.7324 6.04297 21.0702 7.33203C20.1562 9.11914 18.662 10.2617 16.6933 10.6602C14.9765 11.0117 13.1015 10.8066 11.6894 10.1094C9.71478 9.13086 8.43157 7.16211 8.11516 4.61914C8.02142 3.85742 8.03899 3.6289 8.22063 3.37695C8.49602 2.97851 9.05853 2.86133 9.43353 3.11914Z" fill="#FBFDFF"/>
</svg>
