<svg width="30" height="26" viewBox="0 0 30 26" fill="none" xmlns="http://www.w3.org/2000/svg">
<path d="M6.67972 0.666016C3.31644 1.22266 0.890659 3.55469 0.164097 6.92969C-0.0234032 7.79102 -0.0175438 9.37305 0.169956 10.2461C0.41605 11.4004 0.925816 12.543 1.68753 13.6445C2.26761 14.4883 2.69535 14.9922 3.69144 16.0117C5.03324 17.3828 6.36918 18.543 9.31058 20.8809C10.1602 21.5547 11.7891 22.8555 12.9317 23.7695L15.0059 25.4219L16.3067 24.3789C17.0215 23.8047 18.586 22.5625 19.7754 21.6133C23.502 18.6543 24.8965 17.459 26.3672 15.9531C28.377 13.8906 29.4141 12.1797 29.8301 10.2461C30.0059 9.42578 30.0235 7.84961 29.8594 7.05273C29.5137 5.3125 28.7227 3.8418 27.5157 2.69922C26.4493 1.69727 25.1661 1.03516 23.6426 0.71875C22.9102 0.566406 21.2168 0.560547 20.5196 0.712891C18.4454 1.16992 16.6993 2.40625 15.3985 4.35156C15.2051 4.64453 15.0235 4.88477 15 4.88477C14.9766 4.88477 14.795 4.64453 14.5957 4.3457C13.3125 2.42383 11.5664 1.18164 9.52152 0.724609C8.93558 0.589844 7.31254 0.560547 6.67972 0.666016Z" fill="#FBFDFF"/>
</svg>
