<svg xmlns="http://www.w3.org/2000/svg" width="80" height="80" viewBox="0 0 80 80" fill="none">
    <path d="M5.10058 37.2173L7.78514 39.9303L5.10058 42.5738L2.41602 39.9303L5.10058 37.2173Z" stroke="#000"></path>
    <path d="M74.8323 37.2173L77.5168 39.9303L74.8323 42.5738L72.1477 39.9303L74.8323 37.2173Z" stroke="#000"></path>
    <path d="M34.6309 73.113L39.9329 78.5391L44.9664 73.113" stroke="#000"></path>
    <path d="M39.5998 1.60022L45.0335 6.95658M45.0335 6.95658L71.6106 34.574L34.6308 73.1131L7.97534 45.3566L45.0335 6.95658Z" stroke="#000"></path>
    <path d="M40.4 1.60022L34.698 7.00324M34.698 7.00324L71.5436 45.7044L45.0336 73.0435L8.12085 34.4348L31.5437 10.259M34.698 7.00324L31.5437 10.259M31.5437 10.259H27.8524L11.0739 27.6175V52.5218L27.8524 69.9131H51.9463L68.7249 52.5218V27.6175L51.9463 10.259H31.5437Z" stroke="#000"></path>
    <path d="M7.78516 39.9304L39.9328 6.81738L72.1475 39.9304L39.9328 72.8348L7.78516 39.9304Z" stroke="#000"></path>
    <path d="M13.3704 39.6464L10.9126 37.0782L8.05373 40.0177L10.5115 42.5859L13.3704 39.6464Z" fill="#000"></path>
    <path d="M71.8938 39.7855L69.436 37.2173L66.5772 40.1568L69.035 42.7249L71.8938 39.7855Z" fill="#000"></path>
    <path d="M39.7656 12.2687L38.198 10.4618L41.3295 10.4583L39.7656 12.2687Z" fill="#000"></path>
    <path d="M39.7945 67.8956L41.3603 69.7043H38.2288L39.7945 67.8956Z" fill="#000"></path>
    <path d="M42.0478 48V47.5556C42.2148 47.5556 42.3868 47.5454 42.5634 47.525C42.7402 47.4942 42.9024 47.4432 43.0497 47.3716C43.1971 47.3001 43.3197 47.2031 43.4179 47.0805C43.5163 46.9476 43.5653 46.774 43.5653 46.5593C43.5653 46.355 43.5063 46.0689 43.3885 45.7012C43.2707 45.3334 43.1381 44.9553 42.9907 44.567C42.8434 44.1788 42.696 43.8161 42.5488 43.4789C42.4014 43.1418 42.2984 42.9016 42.2394 42.7587H36.4051C36.3659 42.8403 36.3021 42.9782 36.2137 43.1724C36.1351 43.3563 36.0417 43.5708 35.9337 43.8161C35.8256 44.051 35.7176 44.3014 35.6096 44.567C35.5016 44.8327 35.3984 45.0932 35.3002 45.3486C35.2118 45.6041 35.1381 45.839 35.0792 46.0537C35.0202 46.2682 34.9908 46.4368 34.9908 46.5593C34.9908 46.7637 35.0546 46.9324 35.1823 47.0651C35.31 47.1877 35.4672 47.2848 35.6538 47.3563C35.8404 47.4278 36.0319 47.479 36.2283 47.5096C36.4247 47.53 36.5967 47.5454 36.744 47.5556V48H32V47.5556C32.3536 47.5352 32.6531 47.4534 32.8987 47.3103C33.1443 47.1571 33.3604 46.963 33.547 46.728C33.7336 46.4827 33.8956 46.2069 34.0331 45.9004C34.1805 45.5837 34.3279 45.2464 34.4751 44.8889L39.7937 32H40.1767L45.4069 44.9809C45.5543 45.3384 45.6918 45.6705 45.8194 45.9769C45.957 46.2732 46.119 46.5389 46.3056 46.774C46.4923 46.9988 46.7181 47.1827 46.9833 47.3256C47.2485 47.4584 47.5874 47.5352 48 47.5556V48H42.0478ZM39.3664 35.5401L36.744 41.9156H41.9299L39.3664 35.5401Z" fill="#000"></path>
</svg>