<svg width="26" height="26" viewBox="0 0 26 26" fill="none" xmlns="http://www.w3.org/2000/svg">
<path d="M11.963 0.490242C9.54304 0.929695 7.62702 2.79884 7.12898 5.20118C7.03523 5.66407 7.01765 5.91602 7.04108 6.61329C7.07624 7.65626 7.19343 8.14259 7.63874 9.04493C8.89265 11.6055 11.711 12.9004 14.5176 12.2031C16.1641 11.7871 17.5938 10.6152 18.3614 9.04493C18.8009 8.14845 18.9239 7.65626 18.9591 6.61329C18.9825 5.91016 18.9649 5.66407 18.8712 5.20118C18.2911 2.38868 15.8067 0.378914 12.9473 0.408211C12.6368 0.408211 12.1973 0.449226 11.963 0.490242Z" fill="#FBFDFF"/>
<path d="M10.6855 13.6504C5.03711 14.2246 0.701172 18.7773 0.419922 24.4375L0.384766 25.1816L0.589844 25.3867L0.800781 25.5976H12.9355C26.2773 25.5976 25.3164 25.6269 25.5098 25.2461C25.6152 25.0468 25.6211 24.5898 25.5332 23.7929C25.123 20.0254 22.9434 16.7617 19.6211 14.9453C18.6309 14.4062 17.1953 13.9258 15.959 13.7265C15.2734 13.6152 11.5645 13.5625 10.6855 13.6504Z" fill="#FBFDFF"/>
</svg>
