<svg width="66" height="30" viewBox="0 0 66 30" fill="none" xmlns="http://www.w3.org/2000/svg">
<path fill-rule="evenodd" clip-rule="evenodd" d="M35.743 0.645992C37.9688 0.411425 38.672 0.411425 38.7904 2.28682C38.8038 2.50356 38.8016 2.77183 38.7863 3.08173C39.3614 2.96604 39.9493 2.85594 40.5465 2.7563C46.8758 1.70075 48.3995 2.17102 48.75 2.7563C49.1027 3.34385 50.0392 5.10197 49.1027 4.98468C48.1651 4.86854 45.3521 4.63397 39.3756 6.04023C39.0474 6.11748 38.7333 6.19313 38.4325 6.26714C38.0973 8.5711 37.6043 11.2518 37.2667 13.0758C36.8613 15.2619 36.233 20.4661 35.9603 24.0577C47.4192 23.7549 58.0217 23.5568 61.1731 23.748C61.1731 23.748 61.7591 24.9197 61.4075 25.9764C61.4075 25.9764 57.6568 25.2727 40.8995 25.6234C39.1792 25.6596 37.4971 25.6971 35.854 25.7355C35.8173 26.5424 35.8151 27.1627 35.8602 27.4994C36.0946 29.2586 37.286 29.2757 38.0871 29.4932C39.3753 29.8462 37.146 30.0989 36.329 29.9623C35.6246 29.8462 35.2741 29.8462 34.4537 29.3759C33.1344 28.6215 32.621 27.3623 32.523 25.8158C19.7215 26.135 9.47356 26.5053 2.1094 26.7962C2.1094 26.7962 1.05453 26.9135 0.820114 25.1543C0.820114 25.1543 16.8747 24.582 32.5513 24.1488C32.7044 22.2615 33.199 20.116 33.516 18.0017C33.8786 15.5831 34.4592 11.0455 34.9366 7.21651C32.1987 8.04355 31.4368 8.50319 30.3517 8.50319C28.828 8.50319 29.4141 7.33035 28.9452 6.04023C28.9452 6.04023 31.5739 4.92963 35.3459 3.90513C35.5669 2.10638 35.7191 0.843874 35.7404 0.667251L35.743 0.645992ZM65.8474 22.2117C65.1453 24.0882 63.3986 23.0441 63.5169 22.4576C63.5169 22.4576 63.7513 21.7539 63.6341 21.0502C63.4361 19.8592 66.7373 19.8364 65.8474 22.2117ZM24.2579 0.645992L24.2575 0.68819C24.2535 0.94877 24.2126 2.39757 23.7891 4.51521C23.3203 6.86088 22.031 14.835 22.4998 17.8844C22.9687 20.9326 22.8526 21.2845 23.6719 20.698C24.3732 20.1978 26.8728 17.126 28.0965 15.5118C28.3795 13.3374 28.8286 11.4345 28.8286 11.4345C28.8286 11.4345 30.1179 11.0826 30.7028 11.1999C31.686 11.3969 31.4072 12.1382 31.4072 12.6073C31.4072 13.0753 31.0544 14.4838 30.5867 17.0629C30.1179 19.6432 30.4684 21.4024 30.4684 21.637C30.4684 21.8716 30.3523 23.1617 28.5942 21.5186C28.1341 21.0892 27.9309 20.1941 27.8816 19.1063C27.2293 20.027 26.1954 21.2646 25.0784 21.7536C23.2031 22.5746 21.3289 21.9882 19.9212 19.4091L19.8747 19.48C19.1909 20.5511 18.5619 22.442 15.4687 21.7539C14.4448 21.5262 13.8749 20.9299 13.5884 20.1599C12.2357 20.5502 9.92638 21.5295 5.97647 22.3398C1.40536 23.2781 0.820455 18.5879 1.17094 16.2433C1.3516 15.0373 2.78635 10.0291 3.53407 7.45944C2.93595 7.70362 2.30661 7.97206 1.63977 8.26862C1.05487 8.62047 0.234416 7.79949 0 6.04023C0 6.04023 8.90553 2.05374 13.3594 2.28716C17.8122 2.52173 17.2273 5.10197 16.7585 5.45382C16.2885 5.80567 17.8122 4.16484 13.8271 4.75012C11.0798 5.15451 8.83414 5.5589 5.97508 6.54021C5.84804 8.00279 5.24927 10.1338 4.60655 12.3079C5.62186 12.0852 6.95779 11.8456 8.20364 11.7862C10.6639 11.6689 11.6015 11.5528 12.1876 12.4899C12.7493 13.391 10.7188 13.643 3.81017 15.012C3.25428 16.9374 2.81299 18.6799 2.81299 19.7596C2.81299 21.2888 6.09367 19.2916 10.0776 18.4706C11.4474 18.1883 12.5404 18.2942 13.3421 18.55C13.3447 17.2187 13.7233 15.7781 13.945 14.8354C14.4138 12.8427 16.172 10.4959 17.9289 10.1452C19.0895 9.9129 19.8925 10.2939 20.3043 10.5797C21.0243 6.15057 22.031 1.63618 22.031 0.880558C22.031 -0.0577092 24.2579 -0.0577092 24.2579 0.645992ZM55.548 0.529278C55.548 0.529278 59.0631 -1.46454 58.0082 2.28739C56.9534 6.04046 55.8291 14.3482 56.3685 19.8776C56.8373 24.6863 61.3117 13.5341 61.0556 16.1246C60.3126 23.6341 56.9329 23.3745 54.2587 20.6986C54.0045 20.4441 53.8303 19.9578 53.7206 19.2993C52.9851 20.8875 51.6226 22.6926 49.3369 21.9886C46.3771 21.0773 46.292 18.5064 47.6857 14.5993C46.0708 17.3246 44.3468 21.958 41.0157 21.4024C36.9334 20.7214 37.8984 16.966 38.7095 14.4922L38.7899 14.2493C39.6104 11.7863 41.0157 10.0282 42.0706 9.08881C43.1255 8.15054 45.4696 7.79983 45.9373 9.08881C46.4061 10.3789 45.7029 11.9036 43.9459 14.2493C42.6589 15.9675 41.1227 16.111 40.391 16.0655C40.1281 17.671 40.1293 19.2276 40.5469 19.995C41.2501 21.284 43.7115 17.7678 45.4696 15.6555C47.2266 13.5456 48.6331 11.7863 49.8052 11.1999C49.8549 11.175 49.9028 11.1527 49.9486 11.1328C51.2216 10.161 52.4882 10.1886 52.852 10.2614C52.852 10.2614 53.4226 10.3249 54.0042 10.7321C54.5875 5.63416 55.548 0.529278 55.548 0.529278ZM52.266 11.6688C51.5627 9.675 49.1025 18.1183 49.4541 20.4639C49.6464 21.7449 51.6492 18.9256 52.6176 16.712C53.4392 14.8355 52.266 11.6688 52.266 11.6688ZM18.5161 11.318C18.2817 10.8489 17.8129 11.6687 17.344 12.6081C16.0218 15.2544 15.8203 18.823 15.8203 19.7601C15.8203 20.6984 16.172 20.5822 16.5236 20.2293C16.8752 19.8774 18.5161 18.3539 18.985 16.2428C19.4526 14.1317 18.5161 11.318 18.5161 11.318ZM44.532 9.20609C44.2213 8.53313 42.1878 10.7308 41.2501 12.9592C40.9611 13.6458 40.7164 14.4554 40.5378 15.2855C42.6305 15.0281 45.2227 10.7046 44.532 9.20609Z" fill="#FBFDFF"/>
</svg>
