<svg width="30" height="30" viewBox="0 0 30 30" fill="none" xmlns="http://www.w3.org/2000/svg">
<path d="M13.9625 2.49024C11.5426 2.9297 9.62653 4.79884 9.12849 7.20118C9.03474 7.66407 9.01716 7.91602 9.0406 8.61329C9.07575 9.65626 9.19294 10.1426 9.63825 11.0449C10.8922 13.6055 13.7105 14.9004 16.5172 14.2031C18.1636 13.7871 19.5933 12.6152 20.3609 11.0449C20.8004 10.1484 20.9234 9.65626 20.9586 8.61329C20.982 7.91016 20.9644 7.66407 20.8707 7.20118C20.2906 4.38868 17.8062 2.37891 14.9468 2.40821C14.6363 2.40821 14.1968 2.44923 13.9625 2.49024Z" fill="#FBFDFF"/>
<path d="M12.6855 15.6504C7.03711 16.2246 2.70117 20.7773 2.41992 26.4375L2.38477 27.1816L2.58984 27.3867L2.80078 27.5976H14.9355C28.2773 27.5976 27.3164 27.6269 27.5098 27.2461C27.6152 27.0468 27.6211 26.5898 27.5332 25.7929C27.123 22.0254 24.9434 18.7617 21.6211 16.9453C20.6309 16.4062 19.1953 15.9258 17.959 15.7265C17.2734 15.6152 13.5645 15.5625 12.6855 15.6504Z" fill="#FBFDFF"/>
</svg>
