<svg width="30" height="30" viewBox="0 0 30 30" fill="none" xmlns="http://www.w3.org/2000/svg">
<path d="M4.55315 2.07422C4.28948 2.16797 4.11956 2.30859 4.00823 2.52539C3.88518 2.76562 -0.0230192 27.0293 0.0238558 27.2754C0.0765902 27.5449 0.387137 27.8613 0.674246 27.9434C1.00823 28.0371 28.9926 28.0371 29.3266 27.9434C29.6137 27.8613 29.9242 27.5449 29.977 27.2754C30.018 27.0527 25.8871 2.86523 25.7582 2.54883C25.6586 2.32031 25.4946 2.17383 25.2133 2.07422C24.8793 1.95703 4.88714 1.95703 4.55315 2.07422ZM9.43401 4.11914C9.7387 4.31836 9.83245 4.54101 9.90276 5.18554C10.1547 7.48828 11.268 9.08789 13.0492 9.6914C13.641 9.89062 14.2328 9.97851 15.0297 9.97851C17.4555 9.98437 19.1254 8.79492 19.8227 6.58594C19.9575 6.16992 20.016 5.83008 20.1332 4.83398C20.2387 3.91992 21.3637 3.66211 21.8207 4.45312C22.1313 4.97461 21.7328 7.04297 21.0707 8.33203C20.1567 10.1191 18.6625 11.2617 16.6938 11.6602C14.977 12.0117 13.102 11.8066 11.6899 11.1094C9.71526 10.1309 8.43206 8.16211 8.11565 5.61914C8.0219 4.85742 8.03948 4.6289 8.22112 4.37695C8.49651 3.97851 9.05901 3.86133 9.43401 4.11914Z" fill="#FBFDFF"/>
</svg>
