<svg width="25" height="25" viewBox="0 0 25 25" fill="none" xmlns="http://www.w3.org/2000/svg">
<path d="M14.5923 19.9027C15.0211 19.5614 15.4639 19.2089 15.8558 18.8961L15.8577 18.8946C18.9609 16.4305 20.0794 15.4682 21.2569 14.2626C22.8562 12.6212 23.5877 11.3568 23.8808 9.99498C23.9339 9.74675 23.9723 9.32317 23.9769 8.8574C23.9815 8.38878 23.9508 7.97595 23.9034 7.74564L23.902 7.73883C23.6515 6.47772 23.0876 5.44313 22.2438 4.64376C21.4956 3.94116 20.5954 3.47253 19.4988 3.24477C19.2952 3.20242 18.8713 3.16918 18.3875 3.168C17.9004 3.16682 17.4936 3.19852 17.3142 3.2375C16.387 3.4419 15.5619 4.00892 14.5 5C13.9006 5.55947 13.0412 6.45877 12.5 7L11.3311 5.84283C10.8921 5.40829 10.4261 4.88363 10 4.5C9.29144 3.86204 8.608 3.44574 7.71648 3.24649L7.71045 3.2451C7.57639 3.21427 7.20761 3.17996 6.74549 3.17087C6.29021 3.16191 5.89797 3.18026 5.73083 3.20811L5.72972 3.2083C3.33882 3.604 1.63489 5.23393 1.11435 7.6519L1.11386 7.65415C1.0575 7.91308 1.02086 8.34142 1.022 8.81723C1.02313 9.2917 1.0616 9.72631 1.11934 9.99514L1.11965 9.99661C1.29379 10.8134 1.65927 11.6447 2.22879 12.4684L2.23032 12.4706C2.67111 13.1117 2.98657 13.487 3.79148 14.3109L11.4001 20.693L11.4011 20.6937L12.5029 21.5714L12.9626 21.2028C13.3095 20.9242 13.8967 20.4566 14.5212 19.9594M14.5923 19.9027L14.5212 19.9594M14.5923 19.9027C14.5685 19.9217 14.5448 19.9405 14.5212 19.9594" stroke="black" stroke-width="2"/>
</svg>
